<svg width="48" height="48" viewBox="0 0 48 48" fill="none" xmlns="http://www.w3.org/2000/svg">
<rect width="48" height="48" rx="24" fill="#1565D8"/>
<path d="M21.875 24.75C23.7891 24.75 25.375 23.1914 25.375 21.25C25.375 19.3359 23.7891 17.75 21.875 17.75C19.9336 17.75 18.375 19.3359 18.375 21.25C18.375 23.1914 19.9336 24.75 21.875 24.75ZM24.3086 25.625H23.8438C23.2422 25.9258 22.5859 26.0625 21.875 26.0625C21.1641 26.0625 20.4805 25.9258 19.8789 25.625H19.4141C17.3906 25.625 15.75 27.293 15.75 29.3164V30.4375C15.75 31.1758 16.3242 31.75 17.0625 31.75H26.6875C27.3984 31.75 28 31.1758 28 30.4375V29.3164C28 27.293 26.332 25.625 24.3086 25.625ZM33.1406 22.125L32.375 21.3594C32.2656 21.2227 32.0469 21.2227 31.9375 21.3594L29.0664 24.2031L27.8086 22.9453C27.6992 22.8086 27.4805 22.8086 27.3438 22.9453L26.5781 23.7109C26.4688 23.8203 26.4688 24.0391 26.5781 24.1758L28.8203 26.418C28.957 26.5547 29.1484 26.5547 29.2852 26.418L33.1406 22.5898C33.2773 22.4531 33.2773 22.2617 33.1406 22.125Z" fill="white"/>
</svg>
