<svg width="48" height="48" viewBox="0 0 48 48" fill="none" xmlns="http://www.w3.org/2000/svg">
<rect width="48" height="48" rx="24" fill="#1565D8"/>
<path d="M25.6562 18.4062C25.6562 17.7773 24.8086 17.5312 24.4258 18.0508C21.0625 23 25.875 23.2188 25.875 25.625C25.875 26.6094 25.0547 27.4023 24.0977 27.375C23.1133 27.375 22.375 26.582 22.375 25.625V23.2734C22.375 22.6719 21.6367 22.3984 21.2266 22.8359C20.4883 23.6016 19.75 24.9141 19.75 26.5C19.75 29.3984 22.1016 31.75 25 31.75C27.8711 31.75 30.25 29.3984 30.25 26.5C30.25 21.8516 25.6562 21.2227 25.6562 18.4062Z" fill="white"/>
</svg>
