<svg width="48" height="48" viewBox="0 0 48 48" fill="none" xmlns="http://www.w3.org/2000/svg">
<rect width="48" height="48" rx="24" fill="#1565D8"/>
<path d="M23.4062 17.75C23.0234 17.75 22.75 18.0508 22.75 18.4062V23H20.3438C19.8516 23 19.6055 23.6016 19.9609 23.957L24.1172 28.1133C24.3086 28.3047 24.6641 28.3047 24.8555 28.1133L29.0117 23.957C29.3672 23.6016 29.1211 23 28.6289 23H26.25V18.4062C26.25 18.0508 25.9492 17.75 25.5938 17.75H23.4062ZM31.5 28.0312C31.5 27.6758 31.1992 27.375 30.8438 27.375H26.8242L25.4844 28.7148C24.9375 29.2891 24.0352 29.2891 23.4883 28.7148L22.1484 27.375H18.1562C17.7734 27.375 17.5 27.6758 17.5 28.0312V31.0938C17.5 31.4766 17.7734 31.75 18.1562 31.75H30.8438C31.1992 31.75 31.5 31.4766 31.5 31.0938V28.0312ZM28.1094 30.4375C28.1094 30.7383 27.8633 30.9844 27.5625 30.9844C27.2617 30.9844 27.0156 30.7383 27.0156 30.4375C27.0156 30.1367 27.2617 29.8906 27.5625 29.8906C27.8633 29.8906 28.1094 30.1367 28.1094 30.4375ZM29.8594 30.4375C29.8594 30.7383 29.6133 30.9844 29.3125 30.9844C29.0117 30.9844 28.7656 30.7383 28.7656 30.4375C28.7656 30.1367 29.0117 29.8906 29.3125 29.8906C29.6133 29.8906 29.8594 30.1367 29.8594 30.4375Z" fill="white"/>
</svg>
