<svg width="15" height="14" viewBox="0 0 15 14" fill="none" xmlns="http://www.w3.org/2000/svg">
<path d="M6.22363 1.09375C5.91113 1.40625 5.94238 1.875 6.22363 2.1875L10.0049 5.75H1.03613C0.598633 5.75 0.286133 6.09375 0.286133 6.5V7.5C0.286133 7.9375 0.598633 8.25 1.03613 8.25H10.0049L6.22363 11.8438C5.94238 12.1562 5.94238 12.625 6.22363 12.9375L6.91113 13.625C7.22363 13.9062 7.69238 13.9062 7.97363 13.625L14.0674 7.53125C14.3486 7.25 14.3486 6.78125 14.0674 6.46875L7.97363 0.40625C7.69238 0.125 7.22363 0.125 6.91113 0.40625L6.22363 1.09375Z" fill="white"/>
</svg>
