<svg width="16" height="16" viewBox="0 0 16 16" fill="none" xmlns="http://www.w3.org/2000/svg">
<path d="M5.30557 12.4375C5.30557 12.375 5.24307 12.3125 5.14932 12.3125C5.05557 12.3125 4.99307 12.375 4.99307 12.4375C4.99307 12.5 5.05557 12.5625 5.14932 12.5312C5.24307 12.5312 5.30557 12.5 5.30557 12.4375ZM4.33682 12.2812C4.33682 12.3438 4.39932 12.4375 4.49307 12.4375C4.55557 12.4688 4.64932 12.4375 4.68057 12.375C4.68057 12.3125 4.64932 12.25 4.55557 12.2188C4.46182 12.1875 4.36807 12.2188 4.33682 12.2812ZM5.74307 12.25C5.64932 12.25 5.58682 12.3125 5.58682 12.4062C5.58682 12.4688 5.68057 12.5 5.77432 12.4688C5.86807 12.4375 5.93057 12.4062 5.89932 12.3438C5.89932 12.2812 5.80557 12.2188 5.74307 12.25ZM7.77432 0.25C3.46182 0.25 0.149323 3.5625 0.149323 7.875C0.149323 11.3438 2.30557 14.3125 5.43057 15.375C5.83682 15.4375 5.96182 15.1875 5.96182 15C5.96182 14.7812 5.96182 13.7188 5.96182 13.0625C5.96182 13.0625 3.77432 13.5312 3.30557 12.125C3.30557 12.125 2.96182 11.2188 2.46182 11C2.46182 11 1.74307 10.5 2.49307 10.5C2.49307 10.5 3.27432 10.5625 3.71182 11.3125C4.39932 12.5312 5.52432 12.1875 5.99307 11.9688C6.05557 11.4688 6.24307 11.125 6.49307 10.9062C4.74307 10.7188 2.96182 10.4688 2.96182 7.46875C2.96182 6.59375 3.21182 6.1875 3.71182 5.625C3.61807 5.40625 3.36807 4.59375 3.80557 3.5C4.43057 3.3125 5.96182 4.34375 5.96182 4.34375C6.58682 4.15625 7.24307 4.09375 7.89932 4.09375C8.58682 4.09375 9.24307 4.15625 9.86807 4.34375C9.86807 4.34375 11.3681 3.28125 12.0243 3.5C12.4618 4.59375 12.1806 5.40625 12.1181 5.625C12.6181 6.1875 12.9306 6.59375 12.9306 7.46875C12.9306 10.4688 11.0868 10.7188 9.33682 10.9062C9.61807 11.1562 9.86807 11.625 9.86807 12.375C9.86807 13.4062 9.83682 14.7188 9.83682 14.9688C9.83682 15.1875 9.99307 15.4375 10.3993 15.3438C13.5243 14.3125 15.6493 11.3438 15.6493 7.875C15.6493 3.5625 12.1181 0.25 7.77432 0.25ZM3.18057 11.0312C3.11807 11.0625 3.14932 11.1562 3.18057 11.2188C3.24307 11.25 3.30557 11.2812 3.36807 11.25C3.39932 11.2188 3.39932 11.125 3.33682 11.0625C3.27432 11.0312 3.21182 11 3.18057 11.0312ZM2.83682 10.7812C2.80557 10.8438 2.83682 10.875 2.89932 10.9062C2.96182 10.9375 3.02432 10.9375 3.05557 10.875C3.05557 10.8438 3.02432 10.8125 2.96182 10.7812C2.89932 10.75 2.86807 10.75 2.83682 10.7812ZM3.83682 11.9062C3.80557 11.9375 3.80557 12.0312 3.89932 12.0938C3.96182 12.1562 4.05557 12.1875 4.08682 12.125C4.11807 12.0938 4.11807 12 4.05557 11.9375C3.99307 11.875 3.89932 11.8438 3.83682 11.9062ZM3.49307 11.4375C3.43057 11.4688 3.43057 11.5625 3.49307 11.625C3.55557 11.6875 3.61807 11.7188 3.68057 11.6875C3.71182 11.6562 3.71182 11.5625 3.68057 11.5C3.61807 11.4375 3.55557 11.4062 3.49307 11.4375Z" fill="#183B56"/>
</svg>
