<svg width="15" height="15" viewBox="0 0 15 15" fill="none" xmlns="http://www.w3.org/2000/svg">
<path d="M7.33334 3.7395C5.33334 3.7395 3.73959 5.3645 3.73959 7.33325C3.73959 9.33325 5.33334 10.927 7.33334 10.927C9.30209 10.927 10.9271 9.33325 10.9271 7.33325C10.9271 5.3645 9.30209 3.7395 7.33334 3.7395ZM7.33334 9.677C6.05209 9.677 4.98959 8.64575 4.98959 7.33325C4.98959 6.052 6.02084 5.02075 7.33334 5.02075C8.61459 5.02075 9.64584 6.052 9.64584 7.33325C9.64584 8.64575 8.61459 9.677 7.33334 9.677ZM11.8958 3.6145C11.8958 3.14575 11.5208 2.77075 11.0521 2.77075C10.5833 2.77075 10.2083 3.14575 10.2083 3.6145C10.2083 4.08325 10.5833 4.45825 11.0521 4.45825C11.5208 4.45825 11.8958 4.08325 11.8958 3.6145ZM14.2708 4.45825C14.2083 3.33325 13.9583 2.33325 13.1458 1.52075C12.3333 0.708252 11.3333 0.458252 10.2083 0.395752C9.05209 0.333252 5.58334 0.333252 4.42709 0.395752C3.30209 0.458252 2.33334 0.708252 1.48959 1.52075C0.677094 2.33325 0.427094 3.33325 0.364594 4.45825C0.302094 5.6145 0.302094 9.08325 0.364594 10.2395C0.427094 11.3645 0.677094 12.3333 1.48959 13.177C2.33334 13.9895 3.30209 14.2395 4.42709 14.302C5.58334 14.3645 9.05209 14.3645 10.2083 14.302C11.3333 14.2395 12.3333 13.9895 13.1458 13.177C13.9583 12.3333 14.2083 11.3645 14.2708 10.2395C14.3333 9.08325 14.3333 5.6145 14.2708 4.45825ZM12.7708 11.4583C12.5521 12.0833 12.0521 12.552 11.4583 12.802C10.5208 13.177 8.33334 13.0833 7.33334 13.0833C6.30209 13.0833 4.11459 13.177 3.20834 12.802C2.58334 12.552 2.11459 12.0833 1.86459 11.4583C1.48959 10.552 1.58334 8.3645 1.58334 7.33325C1.58334 6.33325 1.48959 4.14575 1.86459 3.20825C2.11459 2.6145 2.58334 2.14575 3.20834 1.89575C4.11459 1.52075 6.30209 1.6145 7.33334 1.6145C8.33334 1.6145 10.5208 1.52075 11.4583 1.89575C12.0521 2.1145 12.5208 2.6145 12.7708 3.20825C13.1458 4.14575 13.0521 6.33325 13.0521 7.33325C13.0521 8.3645 13.1458 10.552 12.7708 11.4583Z" fill="#5A7184"/>
</svg>
