<svg width="15" height="15" viewBox="0 0 15 15" fill="none" xmlns="http://www.w3.org/2000/svg">
<path d="M13.3333 0.333252H1.30209C0.770844 0.333252 0.333344 0.802002 0.333344 1.3645V13.3333C0.333344 13.8958 0.770844 14.3333 1.30209 14.3333H13.3333C13.8646 14.3333 14.3333 13.8958 14.3333 13.3333V1.3645C14.3333 0.802002 13.8646 0.333252 13.3333 0.333252ZM4.55209 12.3333H2.48959V5.677H4.55209V12.3333ZM3.52084 4.7395C2.83334 4.7395 2.30209 4.20825 2.30209 3.552C2.30209 2.89575 2.83334 2.33325 3.52084 2.33325C4.17709 2.33325 4.70834 2.89575 4.70834 3.552C4.70834 4.20825 4.17709 4.7395 3.52084 4.7395ZM12.3333 12.3333H10.2396V9.08325C10.2396 8.33325 10.2396 7.33325 9.17709 7.33325C8.08334 7.33325 7.92709 8.177 7.92709 9.052V12.3333H5.86459V5.677H7.83334V6.58325H7.86459C8.14584 6.052 8.83334 5.4895 9.83334 5.4895C11.9271 5.4895 12.3333 6.89575 12.3333 8.677V12.3333Z" fill="#5A7184"/>
</svg>
