<svg width="17" height="14" viewBox="0 0 17 14" fill="none" xmlns="http://www.w3.org/2000/svg">
<path d="M14.6771 4.08325C15.3021 3.6145 15.8646 3.052 16.3021 2.39575C15.7396 2.64575 15.0833 2.83325 14.4271 2.89575C15.1146 2.4895 15.6146 1.8645 15.8646 1.08325C15.2396 1.45825 14.5208 1.7395 13.8021 1.89575C13.1771 1.2395 12.3333 0.864502 11.3958 0.864502C9.58334 0.864502 8.11459 2.33325 8.11459 4.14575C8.11459 4.39575 8.14584 4.64575 8.20834 4.89575C5.48959 4.7395 3.05209 3.427 1.42709 1.45825C1.14584 1.927 0.989594 2.4895 0.989594 3.1145C0.989594 4.2395 1.55209 5.2395 2.45834 5.83325C1.92709 5.802 1.39584 5.677 0.958344 5.427V5.45825C0.958344 7.052 2.08334 8.3645 3.58334 8.677C3.33334 8.7395 3.02084 8.802 2.73959 8.802C2.52084 8.802 2.33334 8.77075 2.11459 8.7395C2.52084 10.052 3.73959 10.9895 5.17709 11.0208C4.05209 11.8958 2.64584 12.427 1.11459 12.427C0.833344 12.427 0.583344 12.3958 0.333344 12.3645C1.77084 13.302 3.48959 13.8333 5.36459 13.8333C11.3958 13.8333 14.6771 8.8645 14.6771 4.52075C14.6771 4.3645 14.6771 4.2395 14.6771 4.08325Z" fill="#5A7184"/>
</svg>
