<svg width="140" height="140" viewBox="0 0 140 140" fill="none" xmlns="http://www.w3.org/2000/svg">
<path fill-rule="evenodd" clip-rule="evenodd" d="M70 140C108.66 140 140 108.66 140 70C140 31.3401 108.66 0 70 0C31.3401 0 0 31.3401 0 70C0 108.66 31.3401 140 70 140Z" fill="white"/>
<path fill-rule="evenodd" clip-rule="evenodd" d="M50.0467 75.6648C50.1037 75.8133 50.1607 75.9619 50.2177 76.0952C50.5977 77.1905 50.6927 78.1905 50.3602 79.2381C50.0277 81.4286 48.6027 83.3333 46.5127 84.1429C45.8002 84.4762 44.9452 84.619 44.1377 84.619C43.9002 84.619 43.6152 84.619 43.3777 84.5714C42.4277 84.4762 41.4302 84.1429 40.4327 83.5714C39.2452 82.8571 38.0577 81.9048 36.7752 80.4762C35.4927 81.9048 34.3527 82.9048 33.1177 83.5714C32.1677 84.1429 31.1702 84.4762 30.1727 84.5714C30.054 84.5714 29.9234 84.5833 29.7927 84.5952C29.6621 84.6071 29.5315 84.619 29.4127 84.619C28.6052 84.619 27.7977 84.4762 27.0377 84.1429C24.9952 83.3333 23.5227 81.4762 23.1902 79.2381C23.0002 78.1905 23.1427 77.1429 23.5227 76.0476C23.6652 75.6667 23.8077 75.3334 23.9502 75L23.9502 75L23.9502 75L23.9503 74.9999L23.9503 74.9999C24.1878 74.4761 24.4252 73.9524 24.6152 73.4762L24.6627 73.4286C26.7052 68.9524 28.9377 64.4286 31.2177 60L31.3127 59.8095C31.5502 59.381 31.7877 58.9048 32.0252 58.4286L32.0252 58.4286L32.0252 58.4286L32.0252 58.4286C32.3102 57.8571 32.6427 57.3333 33.1177 56.7619C34.1152 55.6667 35.4452 55 36.9177 55C38.3427 55 39.7202 55.6667 40.6702 56.8571C41.0947 57.3253 41.3675 57.8314 41.6241 58.3076L41.6242 58.3078C41.6547 58.3644 41.685 58.4206 41.7152 58.4762C41.9527 58.9524 42.1902 59.4286 42.4277 59.8571L42.5227 60.0476C44.8502 64.5238 47.0352 69.0476 49.0777 73.4762L49.1252 73.5238C49.3152 74 49.5527 74.5238 49.7902 75.0476C49.8757 75.219 49.9612 75.4419 50.0467 75.6647L50.0467 75.6648ZM73.0654 62.4285C73.0654 63.4761 72.2104 64.3808 71.1179 64.3808C70.0254 64.3808 69.1704 63.5237 69.1704 62.4285C69.1704 61.3332 69.9779 60.4761 71.1179 60.4761C72.2579 60.5713 73.0654 61.4285 73.0654 62.4285ZM65.1327 66.3334V66.8096C65.1327 66.8096 64.2302 65.6191 62.2827 65.6191C59.0527 65.6191 56.5352 68.0953 56.5352 71.4763C56.5352 74.8572 59.0052 77.3334 62.2827 77.3334C64.2777 77.3334 65.1327 76.0953 65.1327 76.0953V76.6191C65.1327 76.8572 65.3227 77.0477 65.5602 77.0477H67.9352V65.9049H65.5602C65.3227 65.9049 65.1327 66.143 65.1327 66.3334ZM62.7576 74.7142C63.8026 74.7142 64.7051 74.1428 65.1326 73.4761V69.5713C64.7526 68.9047 63.8026 68.3333 62.7576 68.3333C60.9051 68.3333 59.4326 69.5237 59.4326 71.5237C59.4326 73.5237 60.8576 74.7142 62.7576 74.7142ZM69.7402 65.9048H72.5902V77.0476H69.7402V65.9048ZM109.308 66.8096C109.308 66.8096 110.21 65.6192 112.158 65.6192C115.388 65.6192 117.905 68.0953 117.858 71.5239C117.858 74.9049 115.34 77.3811 112.11 77.3811C110.163 77.3811 109.26 76.143 109.26 76.143V76.6668C109.26 76.9049 109.07 77.0953 108.833 77.0953H106.458V60.5715H109.308V66.8096ZM111.683 74.6666C110.59 74.6666 109.735 74.0952 109.308 73.4285V69.4285C109.735 68.8571 110.685 68.1904 111.683 68.1904C113.583 68.1904 115.008 69.3809 115.008 71.3809C115.008 73.3809 113.583 74.6666 111.683 74.6666ZM104.985 77.143V70.4763C104.985 68.5715 104.605 67.5239 103.56 66.6668C102.753 65.9525 101.708 65.6191 100.473 65.6191C99.3804 65.6191 98.2404 65.9525 97.433 66.8096V66.3334C97.433 66.0953 97.243 65.9049 97.0054 65.9049H94.7729V77.0953H97.6229V69.3334C98.1929 68.6668 99.0955 68.2382 99.9504 68.2382C101.565 68.2382 102.135 68.9525 102.135 70.8096V77.143H104.985ZM87.8851 65.6192C85.9376 65.6192 85.0351 66.8096 85.0351 66.8096V60.5715H82.1851V77.0953H84.5601C84.7976 77.0953 84.9876 76.9049 84.9876 76.6668V76.143C84.9876 76.143 85.8901 77.3811 87.8376 77.3811C91.0676 77.3811 93.5851 74.9049 93.5851 71.5239C93.6326 68.0953 91.1151 65.6192 87.8851 65.6192ZM85.0352 73.4285C85.4627 74.0952 86.3177 74.6666 87.4102 74.6666C89.3102 74.6666 90.7352 73.3809 90.7352 71.3809C90.7352 69.3809 89.3102 68.1904 87.4102 68.1904C86.4127 68.1904 85.4627 68.8571 85.0352 69.4285V73.4285ZM79.7153 65.6191C80.5703 65.6191 80.9978 65.762 80.9978 65.762V68.381C80.9978 68.381 78.6228 67.5715 77.1503 69.2858V77.0953H74.3003V65.9049H76.6753C76.9128 65.9049 77.1028 66.0953 77.1028 66.3334V66.8096C77.6728 66.1906 78.8603 65.6191 79.7153 65.6191ZM36.8703 77.6191C35.2553 75.6191 34.2578 73.7143 33.8778 72.0953C33.7353 71.4286 33.6878 70.8096 33.7828 70.2858C33.8303 69.8096 34.0203 69.381 34.2578 69.0477C34.8278 68.2382 35.7778 67.762 36.8703 67.762C37.9628 67.762 38.9603 68.2382 39.4828 69.0477C39.7203 69.381 39.9103 69.8096 39.9578 70.2858C40.0528 70.8096 40.0053 71.4286 39.8628 72.0953C39.4828 73.6667 38.4378 75.5715 36.8703 77.6191ZM45.9429 82.4762C47.4154 81.8572 48.4604 80.5238 48.6504 79C48.7929 78.2381 48.6979 77.4762 48.3654 76.6667C48.2704 76.381 48.1279 76.0477 47.9854 75.7144L47.9854 75.7143C47.8666 75.4762 47.7597 75.2262 47.6529 74.9762C47.546 74.7262 47.4391 74.4762 47.3204 74.2381V74.1905C45.2779 69.8095 43.0929 65.2857 40.8604 60.8572L40.7654 60.6667C40.5279 60.1905 40.2904 59.7143 40.0529 59.2857C39.8154 58.8095 39.5779 58.381 39.2454 58C38.6279 57.2857 37.7729 56.9048 36.8704 56.9048C35.9679 56.9048 35.1129 57.2857 34.4954 58C34.2104 58.381 33.9254 58.8095 33.6879 59.2857C33.4504 59.7619 33.2129 60.2381 32.9754 60.6667L32.8804 60.8572C30.6004 65.2381 28.4154 69.7619 26.3729 74.1905L26.3254 74.2381C26.0879 74.7143 25.8504 75.2381 25.6604 75.7143C25.595 75.889 25.5297 76.0437 25.4689 76.1875C25.3972 76.3573 25.3318 76.512 25.2804 76.6667C24.9479 77.5238 24.9004 78.2381 24.9954 79C25.2329 80.5238 26.2304 81.9048 27.7029 82.4762C28.3679 82.7143 29.1279 82.8572 29.9354 82.7619C30.6479 82.6667 31.4079 82.4286 32.1679 82C33.2129 81.4286 34.3054 80.5238 35.5404 79.1429C33.6404 76.7619 32.4054 74.5238 31.9779 72.5715C31.7404 71.6667 31.7404 70.8095 31.8354 70.0476C31.9779 69.3334 32.2154 68.6191 32.6429 68.0476C33.5454 66.7619 35.1129 65.9524 36.8229 65.9524C38.5329 65.9524 40.1004 66.7143 41.0029 68.0476C41.4304 68.6191 41.7154 69.2857 41.8104 70.0476C41.9054 70.8095 41.8579 71.6667 41.6679 72.5715C41.2404 74.5238 40.0529 76.7619 38.1054 79.1429C39.3404 80.4762 40.4329 81.4286 41.4779 82C42.2379 82.4286 42.9504 82.6667 43.7104 82.7619C44.4704 82.8572 45.2304 82.7619 45.9429 82.4762Z" fill="#FF5A5F"/>
</svg>
