<svg width="120" height="120" viewBox="0 0 120 120" fill="none" xmlns="http://www.w3.org/2000/svg">
<path fill-rule="evenodd" clip-rule="evenodd" d="M60 120C93.1371 120 120 93.1371 120 60C120 26.8629 93.1371 0 60 0C26.8629 0 0 26.8629 0 60C0 93.1371 26.8629 120 60 120Z" fill="white"/>
<path fill-rule="evenodd" clip-rule="evenodd" d="M28.1294 49.766C28.1294 50.717 27.3144 51.5321 26.3637 51.5321C25.4129 51.5321 24.598 50.717 24.598 49.766C24.598 48.8151 25.4129 48 26.3637 48C27.3144 48 28.1294 48.8151 28.1294 49.766ZM26.3635 52.9812C25.3222 52.9812 24.5073 53.7963 24.5073 54.8378C24.5073 55.8793 25.3222 56.6944 26.3635 56.6944C27.4048 56.6944 28.2198 55.8793 28.2198 54.8378C28.2198 53.751 27.4048 52.9812 26.3635 52.9812ZM24.4624 59.8189C24.4624 58.7774 25.3226 57.917 26.3639 57.917C27.4052 57.917 28.3107 58.8227 28.2654 59.8189C28.2654 60.8604 27.4052 61.7208 26.3639 61.7208C25.3226 61.7208 24.4624 60.8604 24.4624 59.8189ZM26.3635 62.9888C25.3222 62.9888 24.5073 63.8039 24.5073 64.8454C24.5073 65.8869 25.3222 66.702 26.3635 66.702C27.4048 66.702 28.2198 65.8869 28.2198 64.8454C28.2198 63.8491 27.4048 62.9888 26.3635 62.9888ZM24.5981 69.8717C24.5981 68.9208 25.4131 68.1057 26.3638 68.1057C27.3146 68.1057 28.1295 68.9208 28.1295 69.8717C28.1295 70.8227 27.3146 71.6378 26.3638 71.6378C25.4131 71.6378 24.5981 70.8227 24.5981 69.8717ZM31.253 52.7095C30.1212 52.7095 29.1704 53.6604 29.1704 54.7925C29.1704 55.9246 30.1212 56.8755 31.253 56.8755C32.3848 56.8755 33.3356 55.9246 33.3356 54.7925C33.3356 53.6604 32.3848 52.7095 31.253 52.7095ZM29.0801 59.8643C29.0801 58.6416 30.0308 57.6907 31.2532 57.6907C32.4756 57.6907 33.4263 58.6416 33.4263 59.8643C33.4263 61.0869 32.4756 62.0378 31.2532 62.0378C30.0308 62.0378 29.0801 61.0869 29.0801 59.8643ZM31.253 62.717C30.1212 62.717 29.1704 63.668 29.1704 64.8001C29.1704 65.9321 30.1212 66.8831 31.253 66.8831C32.3848 66.8831 33.3356 65.9321 33.3356 64.8001C33.3356 63.7133 32.3848 62.717 31.253 62.717ZM33.9243 59.8641C33.9243 58.5056 35.0562 57.4641 36.3238 57.4641C37.5915 57.4641 38.6328 58.5056 38.7233 59.8641C38.7233 61.2226 37.682 62.2641 36.3238 62.2641C34.9656 62.2641 33.9243 61.132 33.9243 59.8641ZM21.4288 53.2075C20.5686 53.2075 19.8442 53.932 19.8442 54.7924C19.8442 55.6528 20.5686 56.3773 21.4288 56.3773C22.289 56.3773 23.0134 55.6528 23.0134 54.7924C23.0134 53.932 22.289 53.2075 21.4288 53.2075ZM19.7539 59.8642C19.7539 58.9132 20.4783 58.1887 21.429 58.1887C22.3798 58.1887 23.1042 58.9132 23.1042 59.8642C23.1042 60.8151 22.3798 61.5397 21.429 61.5397C20.4783 61.5397 19.7539 60.8151 19.7539 59.8642ZM21.4288 63.2151C20.5686 63.2151 19.8442 63.9396 19.8442 64.8C19.8442 65.6604 20.5686 66.3849 21.4288 66.3849C22.289 66.3849 23.0134 65.6604 23.0134 64.8C23.0134 63.9396 22.289 63.2151 21.4288 63.2151ZM15 59.8641C15 59.049 15.6338 58.415 16.4488 58.415C17.2637 58.415 17.8975 59.049 17.8975 59.8641C17.8975 60.6792 17.2637 61.3132 16.4488 61.3132C15.6338 61.3132 15 60.6792 15 59.8641Z" fill="#00B0B9"/>
<path d="M56.7876 56.7395C56.6065 56.7395 56.4707 56.9206 56.4707 57.0565V69.6452C56.4707 69.8263 56.6518 69.9621 56.7876 69.9621H58.3269C58.508 69.9621 58.6438 69.781 58.6438 69.6452V57.0565C58.6438 56.8754 58.4627 56.7395 58.3269 56.7395H56.7876Z" fill="#002A3A"/>
<path d="M57.6026 51.4414C56.7876 51.4414 56.1538 52.0754 56.1538 52.8905C56.1538 53.7056 56.7876 54.3395 57.6026 54.3395C58.4175 54.3395 59.0513 53.7056 59.0513 52.8905C59.0513 52.0754 58.4175 51.4414 57.6026 51.4414Z" fill="#002A3A"/>
<path d="M89.0679 56.7395C88.8868 56.7395 88.751 56.9206 88.751 57.0565V69.6452C88.751 69.8263 88.9321 69.9621 89.0679 69.9621H90.6072C90.7883 69.9621 90.9241 69.781 90.9241 69.6452V57.0565C90.9241 56.8754 90.743 56.7395 90.6072 56.7395H89.0679Z" fill="#002A3A"/>
<path d="M89.792 51.4414C88.9771 51.4414 88.3433 52.0754 88.3433 52.8905C88.3433 53.7056 88.9771 54.3395 89.792 54.3395C90.6069 54.3395 91.2408 53.7056 91.2408 52.8905C91.2408 52.0754 90.6069 51.4414 89.792 51.4414Z" fill="#002A3A"/>
<path fill-rule="evenodd" clip-rule="evenodd" d="M105.177 68.5889C105.167 68.6329 105.143 68.6863 105.084 68.7396C105.084 68.8301 104.984 68.9207 104.784 68.8754L104.861 68.9602C104.851 68.9638 104.842 68.966 104.834 68.966H104.684L104.684 68.966H104.484V68.8302V68.4226H104.834C104.934 68.4226 105.034 68.4226 105.084 68.5132C105.143 68.5132 105.167 68.5446 105.177 68.5889ZM104.484 68.966H104.434V69.3735H104.234V68.2415H104.684H104.884C104.984 68.2415 105.084 68.332 105.084 68.332C105.184 68.332 105.184 68.4226 105.184 68.4226V68.5132C105.184 68.5318 105.184 68.5581 105.177 68.5889C105.184 68.6198 105.184 68.6571 105.184 68.6943C105.184 68.7849 105.184 68.8754 105.084 68.8754C105.026 68.8754 104.967 68.9065 104.919 68.9323C104.897 68.9437 104.878 68.954 104.861 68.9602L105.234 69.3735H105.034L104.684 68.966H104.484V68.966Z" fill="#002A3A"/>
<path fill-rule="evenodd" clip-rule="evenodd" d="M103.646 68.8301C103.646 68.2867 104.144 67.7886 104.687 67.7886C105.231 67.7886 105.729 68.2867 105.729 68.8301C105.729 69.3735 105.231 69.8716 104.687 69.8716C104.144 69.8716 103.646 69.3735 103.646 68.8301ZM103.736 68.8301C103.736 69.3735 104.144 69.781 104.687 69.781C105.185 69.781 105.638 69.3735 105.638 68.8301C105.638 68.2867 105.23 67.8792 104.687 67.8792C104.144 67.8792 103.736 68.2867 103.736 68.8301Z" fill="#002A3A"/>
<path d="M69.2832 58.8225C69.4643 58.8225 69.6001 58.6414 69.6001 58.5056V56.9659C69.6001 56.7848 69.419 56.649 69.2832 56.649H66.0688V51.849C66.0688 51.6678 65.8877 51.532 65.7519 51.532H64.2125C64.0315 51.532 63.8956 51.7131 63.8956 51.849V56.649H62.3111C62.13 56.649 61.9941 56.8301 61.9941 56.9659V58.5056C61.9941 58.6867 62.1752 58.8225 62.3111 58.8225H63.8956V66.1131C63.8956 68.3773 65.4349 69.781 67.5628 69.781H69.1474C69.3285 69.781 69.4643 69.5999 69.4643 69.4641V67.9244C69.4643 67.7433 69.2832 67.6075 69.1474 67.6075H67.7892C66.7479 67.6075 66.0235 66.8829 66.0235 65.7509V58.732H69.2379L69.2832 58.8225Z" fill="#002A3A"/>
<path d="M101.156 58.8225C101.337 58.8225 101.473 58.6414 101.473 58.5056V56.9659C101.473 56.7848 101.292 56.649 101.156 56.649H97.9413V51.849C97.9413 51.6678 97.7602 51.532 97.6244 51.532H96.0851C95.904 51.532 95.7682 51.7131 95.7682 51.849V56.649H94.1836C94.0025 56.649 93.8667 56.8301 93.8667 56.9659V58.5056C93.8667 58.6867 94.0478 58.8225 94.1836 58.8225H95.7682V66.1131C95.7682 68.3773 97.3075 69.781 99.4354 69.781H101.02C101.201 69.781 101.337 69.5999 101.337 69.4641V67.9244C101.337 67.7433 101.156 67.6075 101.02 67.6075H99.6617C98.6204 67.6075 97.8961 66.8829 97.8961 65.7509V58.732H101.201L101.156 58.8225Z" fill="#002A3A"/>
<path d="M47.28 58.8225V69.5545C47.28 69.7357 47.4611 69.8715 47.597 69.8715H49.1363C49.3174 69.8715 49.4532 69.6904 49.4532 69.5545V58.8225H52.9845C53.1656 58.8225 53.3014 58.6413 53.3014 58.5055V56.9659C53.3014 56.7847 53.1203 56.6489 52.9845 56.6489H49.4532V53.8413C49.4532 52.7093 50.2681 51.9395 51.2189 51.9395H52.9845C53.1656 51.9395 53.3014 51.7583 53.3014 51.6225V50.0829C53.3014 49.9017 53.1203 49.7659 52.9845 49.7659H51.3094C49.0457 49.7659 47.3253 51.6225 47.3253 53.7508V56.6489H45.7407C45.5596 56.6489 45.4238 56.83 45.4238 56.9659V58.5055C45.4238 58.6866 45.6049 58.8225 45.7407 58.8225H47.28Z" fill="#002A3A"/>
<path fill-rule="evenodd" clip-rule="evenodd" d="M79.2888 56.2413C81.0545 56.2413 82.7296 56.9659 83.952 58.2338C85.1744 59.547 85.8082 61.2677 85.6724 63.2149C85.6724 68.1055 82.4127 70.2791 79.1983 70.2791C76.0291 70.2791 72.7241 68.1055 72.7241 63.2149V49.9923C72.7241 49.8564 72.8599 49.6753 73.041 49.6753H74.5803C74.7162 49.6753 74.8973 49.8111 74.8973 49.9923V58.0074C75.9385 56.9659 77.6137 56.2413 79.2888 56.2413ZM74.8975 63.2602C74.8975 65.6602 76.0746 68.2413 79.289 68.2413C82.5034 68.2413 83.6353 65.7055 83.6805 63.2602C83.6805 60.3621 81.9149 58.3696 79.289 58.3696C76.6631 58.3696 74.8975 60.3168 74.8975 63.2602Z" fill="#002A3A"/>
</svg>
