<svg width="120" height="120" viewBox="0 0 120 120" fill="none" xmlns="http://www.w3.org/2000/svg">
<path fill-rule="evenodd" clip-rule="evenodd" d="M60 120C93.1371 120 120 93.1371 120 60C120 26.8629 93.1371 0 60 0C26.8629 0 0 26.8629 0 60C0 93.1371 26.8629 120 60 120Z" fill="white"/>
<path d="M40.455 56.1393H31.258V58.8575H37.7824C37.4679 62.6787 34.2843 64.3332 31.258 64.3332C27.4062 64.3332 24.0654 61.2999 24.0654 57.0454C24.1047 52.909 27.2883 49.7575 31.2973 49.7575C34.4023 49.7575 36.2102 51.7272 36.2102 51.7272L38.1361 49.7575C38.1361 49.7575 35.6993 47.0393 31.2187 47.0393C25.4804 46.9999 21.1177 51.806 21.1177 57.006C21.1177 62.0878 25.2445 67.0514 31.3366 67.0514C36.6819 67.0514 40.6122 63.3878 40.6122 57.9514C40.6122 56.809 40.455 56.1393 40.455 56.1393Z" fill="#4885ED"/>
<path fill-rule="evenodd" clip-rule="evenodd" d="M41.4771 60.5515C41.4771 57.1242 44.189 54.1697 47.9621 54.1697C51.0671 54.1697 54.4079 56.3363 54.4079 60.6303C54.4079 64.3333 51.5387 67.0515 48.0014 67.0515C44.1104 67.0515 41.4771 64.0576 41.4771 60.5515ZM51.6176 60.5909C51.6176 58.1879 49.8489 56.6909 48.0016 56.6909C45.9185 56.6909 44.3071 58.3455 44.3464 60.5515C44.3464 62.8364 45.9578 64.4909 48.0016 64.4909C49.8882 64.4909 51.6176 62.9546 51.6176 60.5909Z" fill="#DB3236"/>
<path fill-rule="evenodd" clip-rule="evenodd" d="M55.5479 60.5515C55.5479 57.1242 58.2598 54.1697 62.0329 54.1697C65.1379 54.1697 68.4787 56.3363 68.4787 60.6303C68.4787 64.3333 65.6095 67.0515 62.0722 67.0515C58.1812 67.0515 55.5479 64.0576 55.5479 60.5515ZM65.6884 60.5909C65.6884 58.1879 63.9197 56.6909 62.0724 56.6909C59.9893 56.6909 58.3779 58.3455 58.4172 60.5515C58.4172 62.8364 60.0287 64.4909 62.0724 64.4909C63.959 64.4909 65.6884 62.9546 65.6884 60.5909Z" fill="#F4C20D"/>
<path fill-rule="evenodd" clip-rule="evenodd" d="M69.6577 60.6303C69.6577 57.203 72.3697 54.1697 75.8284 54.1697C77.3219 54.1697 78.4617 54.7606 79.2478 55.6666V54.5636H81.9597V66.106C81.9597 70.6757 79.3264 72.8424 75.907 72.8424C72.7627 72.8424 70.994 70.9121 70.1294 69.0606L72.6448 68.0363C72.9985 68.8636 73.9811 70.3212 75.9463 70.3212C77.9901 70.3212 79.3264 68.9818 79.3264 66.7757V65.5151C78.5796 66.3424 77.6363 67.0909 75.7891 67.0909C72.802 67.0909 69.6577 64.4909 69.6577 60.6303ZM79.4836 60.6303C79.4836 58.1485 77.7542 56.6909 76.0642 56.6909C74.2562 56.6909 72.4875 58.1485 72.4482 60.6303C72.4482 63.0333 74.1776 64.5303 76.0249 64.5303C77.7542 64.5303 79.4836 63.1515 79.4836 60.6303Z" fill="#4885ED"/>
<path fill-rule="evenodd" clip-rule="evenodd" d="M87.9731 60.5516C87.9731 56.7304 90.7244 54.1304 93.9866 54.1304C96.5413 54.1304 98.4672 55.8637 99.3319 57.8334L99.7642 58.897L91.1567 62.4819C91.6677 63.4667 92.493 64.4516 94.301 64.4516C95.9124 64.4516 96.8557 63.5849 97.4453 62.6789L99.6856 64.1758C98.703 65.5152 97.0129 67.0122 94.301 67.0122C91.0388 67.0122 87.9731 64.6092 87.9731 60.5516ZM96.4629 57.9911C96.0699 57.2426 95.2445 56.6123 94.0654 56.6123C92.2181 56.6123 90.4495 58.5426 90.6853 60.3941L96.4629 57.9911Z" fill="#DB3236"/>
<path d="M83.8462 66.6576H86.676V47.6697H83.8462V66.6576Z" fill="#3CBA54"/>
</svg>
