<svg width="140" height="140" viewBox="0 0 140 140" fill="none" xmlns="http://www.w3.org/2000/svg">
<path fill-rule="evenodd" clip-rule="evenodd" d="M70 140C108.66 140 140 108.66 140 70C140 31.3401 108.66 0 70 0C31.3401 0 0 31.3401 0 70C0 108.66 31.3401 140 70 140Z" fill="white"/>
<path fill-rule="evenodd" clip-rule="evenodd" d="M92.6496 66.2955C93.5899 65.3042 94.8436 64.7825 96.1496 64.7825C98.9182 64.7825 101.164 67.1825 101.164 70.1042C101.164 73.026 98.9182 75.426 96.1496 75.426C94.7914 75.426 93.5899 74.8521 92.6496 73.9129V74.8521C92.6496 75.0086 92.4929 75.1651 92.3361 75.1651H90.56C90.4033 75.1651 90.2466 75.0086 90.2466 74.8521V61.2347C90.2466 61.0782 90.4033 60.9216 90.56 60.9216H92.3361C92.4929 60.9216 92.6496 61.0782 92.6496 61.2347V66.2955ZM92.6494 70.1564C92.7017 71.8782 94.0599 73.2868 95.7315 73.2868C97.4031 73.2868 98.8136 71.8782 98.8136 70.1042C98.8136 68.3303 97.4031 66.9216 95.7315 66.9216C94.0076 66.9216 92.7017 68.3303 92.6494 70.0521V70.1564Z" fill="#4264FB"/>
<path fill-rule="evenodd" clip-rule="evenodd" d="M102.261 70.1042C102.261 67.1825 104.716 64.7825 107.694 64.7825C110.672 64.7825 113.075 67.1303 113.075 70.1042C113.075 73.0781 110.724 75.4259 107.694 75.4259C104.664 75.4259 102.261 73.0259 102.261 70.1042ZM104.56 70.1042C104.56 71.8782 105.97 73.2868 107.642 73.2868C109.366 73.2868 110.724 71.8782 110.724 70.1042C110.724 68.3303 109.366 66.9216 107.642 66.9216C105.918 66.9216 104.56 68.3303 104.56 70.1042Z" fill="#4264FB"/>
<path fill-rule="evenodd" clip-rule="evenodd" d="M72.7463 65.0433H74.5224C74.6792 65.0433 74.8359 65.1999 74.8359 65.3564V74.852C74.8359 75.0086 74.6792 75.1651 74.5224 75.1651H72.7463C72.5896 75.1651 72.4329 75.0086 72.4329 74.852V73.9129C71.4926 74.9042 70.2389 75.4259 68.9329 75.4259C66.1642 75.4259 63.918 73.0259 63.918 70.1042C63.918 67.1825 66.1642 64.7825 68.9329 64.7825C70.2911 64.7825 71.4926 65.3564 72.4329 66.2955V65.3564C72.4329 65.1999 72.5896 65.0433 72.7463 65.0433ZM66.3208 70.1042C66.3208 71.8782 67.7312 73.2868 69.4029 73.2868C71.0745 73.2868 72.4327 71.9303 72.485 70.1564V70.0521C72.4327 68.3303 71.1268 66.9216 69.4029 66.9216C67.679 66.9216 66.3208 68.3303 66.3208 70.1042Z" fill="#4264FB"/>
<path fill-rule="evenodd" clip-rule="evenodd" d="M79.903 66.2955C80.8433 65.3042 82.097 64.7825 83.403 64.7825C86.1716 64.7825 88.4179 67.1825 88.4179 70.1042C88.4179 73.0259 86.1716 75.4259 83.403 75.4259C82.0448 75.4259 80.8433 74.852 79.903 73.9129V78.9738C79.903 79.1303 79.7463 79.2868 79.5896 79.2868H77.8134C77.6567 79.2868 77.5 79.1303 77.5 78.9738V65.3564C77.5 65.1999 77.6567 65.0433 77.8134 65.0433H79.5896C79.7463 65.0433 79.903 65.1999 79.903 65.3564V66.2955ZM79.9028 70.1564C79.9551 71.8782 81.3133 73.2868 82.9849 73.2868C84.7088 73.2868 86.067 71.8782 86.067 70.1042C86.067 68.3303 84.6566 66.9216 82.9849 66.9216C81.261 66.9216 79.9551 68.3303 79.9028 70.0521V70.1564Z" fill="#4264FB"/>
<path d="M58.6419 64.7825C57.336 64.7825 56.1345 65.5651 55.5598 66.7651C54.933 65.5129 53.627 64.7825 52.2166 64.7825C51.1195 64.7825 50.127 65.3042 49.4479 66.1912V65.3564C49.4479 65.1999 49.2912 65.0433 49.1345 65.0433H47.3584C47.2016 65.0433 47.0449 65.1999 47.0449 65.3564V74.9042C47.0449 75.0607 47.2016 75.2173 47.3584 75.2173H49.1345C49.2912 75.2173 49.4479 75.0607 49.4479 74.9042V69.1651C49.5001 67.9129 50.3882 66.8694 51.4852 66.8694C52.6345 66.8694 53.5748 67.8086 53.5748 69.0607V74.9042C53.5748 75.0607 53.7315 75.2173 53.8882 75.2173H55.6643C55.821 75.2173 55.9778 75.0607 55.9778 74.9042V68.9564C56.1345 67.8086 56.9703 66.8694 58.0151 66.8694C59.1643 66.8694 60.1046 67.8086 60.1046 69.0607V74.9042C60.1046 75.0607 60.2613 75.2173 60.4181 75.2173H62.1942C62.3509 75.2173 62.5076 75.0607 62.5076 74.9042V68.3303C62.4031 66.3477 60.7315 64.7825 58.6419 64.7825Z" fill="#4264FB"/>
<path d="M122.635 74.7477L119.553 70.0521L122.582 65.4086C122.687 65.3043 122.635 65.0956 122.478 65.0434C122.426 64.9912 122.373 64.9912 122.321 64.9912H120.284C120.127 64.9912 119.97 65.0956 119.918 65.1999L118.142 68.226L116.366 65.2521C116.262 65.0956 116.157 65.0434 116 65.0434H113.963C113.806 65.0434 113.702 65.1477 113.702 65.3043C113.702 65.3564 113.702 65.4086 113.754 65.4608L116.784 70.1043L113.702 74.7999C113.597 74.9043 113.65 75.113 113.806 75.1651C113.859 75.2173 113.911 75.2173 113.963 75.2173H116C116.157 75.2173 116.314 75.113 116.366 75.0086L118.194 71.9825L120.023 75.0086C120.127 75.1651 120.232 75.2173 120.388 75.2173H122.426C122.582 75.2173 122.687 75.113 122.687 74.9564C122.687 74.8521 122.687 74.7999 122.635 74.7477Z" fill="#4264FB"/>
<path fill-rule="evenodd" clip-rule="evenodd" d="M18 70.1044C18 63.6348 23.2761 58.3652 29.806 58.3652C36.2836 58.3652 41.6119 63.5826 41.6119 70.1044C41.6119 76.6261 36.3358 81.8957 29.806 81.8957C23.2761 81.8957 18 76.5739 18 70.1044ZM24.1643 75.7391C24.1643 75.7391 31.3211 77.0435 35.3957 73.0261C37.5897 70.7826 37.5375 67.0783 35.1867 64.7304C32.836 62.3826 29.127 62.2783 26.8808 64.5217C22.8584 68.5913 24.1643 75.7391 24.1643 75.7391Z" fill="#4264FB"/>
<path d="M31.1118 65.2522L29.9626 67.6L27.6118 68.7478L29.9626 69.8957L31.1118 72.2957L32.2611 69.8957L34.6641 68.7478L32.2611 67.6L31.1118 65.2522Z" fill="#4264FB"/>
</svg>
