<svg width="140" height="140" viewBox="0 0 140 140" fill="none" xmlns="http://www.w3.org/2000/svg">
<path fill-rule="evenodd" clip-rule="evenodd" d="M70 140C108.66 140 140 108.66 140 70C140 31.3401 108.66 0 70 0C31.3401 0 0 31.3401 0 70C0 108.66 31.3401 140 70 140Z" fill="white"/>
<path fill-rule="evenodd" clip-rule="evenodd" d="M35.8254 55.0984C27.6493 55.0984 21 61.6886 21 69.8525C21 78.0164 27.6493 84.6558 35.8254 84.6558C44.0015 84.6558 50.6507 78.0164 50.6507 69.8525C50.6015 61.6886 44.0015 55.0984 35.8254 55.0984ZM42.5731 76.3935C42.3268 76.8361 41.7357 76.9837 41.2925 76.6886C37.7954 74.5738 33.4611 74.082 28.2895 75.2623C27.7969 75.3607 27.3044 75.0656 27.2059 74.5738C27.1074 74.082 27.4029 73.5902 27.8954 73.4919C33.5596 72.2132 38.3865 72.7541 42.2775 75.164C42.7208 75.4099 42.8686 75.9509 42.5731 76.3935ZM42.8194 72.7542C43.3612 73.0985 44.0508 72.9018 44.3955 72.3608C44.7403 71.8198 44.5433 71.1313 44.1 70.787C39.5194 67.9837 32.8209 67.1969 27.4523 68.8198C26.812 69.0165 26.4672 69.6559 26.6642 70.246C26.8612 70.8854 27.5015 71.2296 28.0926 71.0329C32.7717 69.6067 38.8299 70.2952 42.8194 72.7542ZM44.5435 68.1803C39.7659 65.3278 31.8853 65.0819 27.3539 66.4589C26.6151 66.7048 25.8271 66.2622 25.63 65.5245C25.433 64.836 25.8271 64.0491 26.5659 63.8524C31.7868 62.2786 40.5047 62.5737 45.9718 65.8196C46.6121 66.213 46.8584 67.0491 46.4644 67.7376C46.0703 68.377 45.233 68.5737 44.5435 68.1803ZM58.2849 66.8034C58.2849 67.6886 58.7282 68.1312 61.2894 68.7214C64.3923 69.5083 65.6729 70.6886 65.6237 72.8034C65.6237 75.3115 63.7028 76.9345 60.7476 76.9345C58.6789 76.9345 56.7088 76.1968 55.1326 74.7706C55.0834 74.7214 55.0834 74.5738 55.1326 74.5247L56.5117 72.8525C56.5117 72.8525 56.561 72.8034 56.6103 72.8034C56.6103 72.8034 56.6595 72.8034 56.7088 72.8525C58.0879 74.0329 59.3192 74.5247 60.7968 74.5247C62.1267 74.5247 62.964 73.9345 62.964 73.0001C62.964 72.164 62.57 71.6722 60.1073 71.1312C57.2506 70.4427 55.5759 69.5574 55.5759 67.0001C55.5759 64.6394 57.4968 62.9673 60.255 62.9673C62.1267 62.9673 63.752 63.5574 65.1804 64.6886C65.2789 64.787 65.2789 64.8853 65.2297 64.9345L63.9983 66.705C63.9983 66.705 63.9491 66.7542 63.8998 66.7542C63.8506 66.7542 63.8013 66.7542 63.752 66.705C62.57 65.8197 61.3879 65.3771 60.255 65.3771C59.0729 65.3771 58.2849 65.9673 58.2849 66.8034ZM72.3716 66.2131C71.091 66.2131 70.0074 66.7049 69.1701 67.7377V66.5574C69.1701 66.459 69.0716 66.4099 69.0223 66.4099H66.7566C66.6581 66.4099 66.6089 66.5082 66.6089 66.5574V79.5902C66.6089 79.6885 66.7074 79.7377 66.7566 79.7377H69.0223C69.1208 79.7377 69.1701 79.6394 69.1701 79.5902V75.5082C70.0566 76.4918 71.091 76.9836 72.3716 76.9836C74.785 76.9836 77.1984 75.164 77.1984 71.623C77.1984 68.082 74.785 66.2131 72.3716 66.2131ZM71.83 74.623C73.4554 74.623 74.5389 73.3443 74.5389 71.5738C74.5389 69.8033 73.4061 68.5247 71.83 68.5247C70.2539 68.5247 69.0718 69.8525 69.0718 71.5738C69.0718 73.2952 70.2539 74.623 71.83 74.623ZM83.4046 66.2131C80.3016 66.2131 77.8882 68.5738 77.8882 71.623C77.8882 74.623 80.3016 76.9836 83.3553 76.9836C86.4583 76.9836 88.8718 74.623 88.8718 71.623C88.921 68.5738 86.5076 66.2131 83.4046 66.2131ZM80.5479 71.5737C80.5479 73.295 81.7792 74.6229 83.4046 74.6229C85.0792 74.6229 86.2613 73.3934 86.3105 71.6229C86.3105 69.9016 85.0792 68.5737 83.4046 68.5737C81.7299 68.5737 80.5479 69.8032 80.5479 71.5737ZM95.4715 66.4098H92.9595V63.8524C92.9595 63.754 92.861 63.7048 92.8118 63.7048H90.5461C90.4476 63.7048 90.3983 63.8032 90.3983 63.8524V66.4098H89.3148C89.2162 66.4098 89.167 66.5081 89.167 66.5573V68.5245C89.167 68.6229 89.2655 68.672 89.3148 68.672H90.3983V73.7376C90.3983 75.8032 91.4327 76.836 93.4521 76.836C94.2894 76.836 94.9297 76.6884 95.57 76.295C95.6192 76.2458 95.6685 76.1966 95.6685 76.1475V74.2786C95.6685 74.2294 95.6192 74.1802 95.57 74.1311C95.5207 74.0819 95.4715 74.0819 95.4222 74.1311C94.9789 74.3278 94.5357 74.4753 94.0924 74.4753C93.3536 74.4753 93.0088 74.1311 93.0088 73.3934V68.672H95.5207C95.6192 68.672 95.6685 68.5737 95.6685 68.5245V66.5573C95.6685 66.5081 95.57 66.4098 95.4715 66.4098ZM104.239 66.1639V66.459L108.179 66.5082C108.228 66.5082 108.278 66.5573 108.327 66.6065L110.986 73.5901L113.449 66.6065C113.449 66.5573 113.548 66.5082 113.597 66.5082H115.764C115.813 66.5082 115.863 66.5082 115.912 66.5573V66.7049L111.922 76.9344C111.085 79.0491 110.149 79.836 108.475 79.836C107.539 79.836 106.8 79.6393 106.012 79.1967C105.963 79.1967 105.913 79.0983 105.963 79L106.751 77.2786C106.751 77.2295 106.8 77.1803 106.849 77.1803C106.882 77.1475 106.915 77.1584 106.948 77.1694C106.964 77.1748 106.98 77.1803 106.997 77.1803C107.44 77.4262 107.883 77.5246 108.278 77.5246C108.77 77.5246 109.115 77.377 109.509 76.5409L106.258 68.7213H104.14V76.5901C104.14 76.6393 104.091 76.7377 103.992 76.7377H101.727C101.678 76.7377 101.579 76.6885 101.579 76.5901V68.7705H100.495C100.446 68.7705 100.348 68.7213 100.348 68.6229V66.6557C100.348 66.6065 100.397 66.5082 100.495 66.5082H101.579V66.0164C101.579 63.7541 102.712 62.5737 104.83 62.5737C105.716 62.5737 106.307 62.7213 106.751 62.8688C106.8 62.8688 106.849 62.9672 106.849 63.0164V64.9344C106.849 64.9836 106.849 65.0327 106.8 65.0819H106.652C106.209 64.9344 105.864 64.836 105.372 64.836C104.583 64.836 104.239 65.2295 104.239 66.1639ZM99.1659 66.4099H96.9002C96.8017 66.4099 96.7524 66.5083 96.7524 66.5575V76.5411C96.7524 76.6394 96.851 76.6886 96.9002 76.6886H99.1659C99.2644 76.6886 99.3136 76.5902 99.3136 76.5411V66.6066C99.3629 66.5083 99.2644 66.4099 99.1659 66.4099ZM96.4072 63.5082C96.4072 62.623 97.146 61.8853 98.0326 61.8853C98.9684 61.8853 99.658 62.623 99.658 63.5082C99.658 64.3935 98.9192 65.1312 98.0326 65.1312C97.146 65.1312 96.4072 64.3935 96.4072 63.5082ZM118.079 69.6558C117.192 69.6558 116.454 68.9181 116.454 68.0329C116.454 67.1476 117.143 66.4099 118.079 66.4099C119.015 66.4099 119.704 67.1476 119.704 68.0329C119.704 68.9181 119.015 69.6558 118.079 69.6558ZM116.651 68.0328C116.651 67.1967 117.242 66.5574 118.079 66.5574C118.917 66.5574 119.557 67.1967 119.508 67.9836C119.508 68.8197 118.917 69.459 118.079 69.459C117.291 69.459 116.651 68.8197 116.651 68.0328ZM118.473 68.1802L118.917 68.8196H118.523L118.129 68.2294H117.784V68.8196H117.439V67.1475H118.178C118.572 67.1475 118.818 67.3442 118.818 67.6884C118.867 67.9343 118.67 68.1311 118.473 68.1802ZM117.734 67.4426H118.178C118.375 67.4426 118.522 67.4918 118.522 67.7377C118.522 67.8853 118.375 67.9836 118.178 67.9836H117.734V67.4426Z" fill="#1ED760"/>
</svg>
