<svg width="11" height="11" viewBox="0 0 11 11" fill="none" xmlns="http://www.w3.org/2000/svg">
<path d="M10 4.375H6.625V1C6.625 0.601562 6.27344 0.25 5.875 0.25H5.125C4.70312 0.25 4.375 0.601562 4.375 1V4.375H1C0.578125 4.375 0.25 4.72656 0.25 5.125V5.875C0.25 6.29688 0.578125 6.625 1 6.625H4.375V10C4.375 10.4219 4.70312 10.75 5.125 10.75H5.875C6.27344 10.75 6.625 10.4219 6.625 10V6.625H10C10.3984 6.625 10.75 6.29688 10.75 5.875V5.125C10.75 4.72656 10.3984 4.375 10 4.375Z" fill="#1565D8"/>
</svg>
