<svg width="13" height="13" viewBox="0 0 13 13" fill="none" xmlns="http://www.w3.org/2000/svg">
<path d="M5.85645 1.58203C5.58301 1.85547 5.61035 2.26562 5.85645 2.53906L9.16504 5.65625H1.31738C0.93457 5.65625 0.661133 5.95703 0.661133 6.3125V7.1875C0.661133 7.57031 0.93457 7.84375 1.31738 7.84375H9.16504L5.85645 10.9883C5.61035 11.2617 5.61035 11.6719 5.85645 11.9453L6.45801 12.5469C6.73145 12.793 7.1416 12.793 7.3877 12.5469L12.7197 7.21484C12.9658 6.96875 12.9658 6.55859 12.7197 6.28516L7.3877 0.980469C7.1416 0.734375 6.73145 0.734375 6.45801 0.980469L5.85645 1.58203Z" fill="#1565D8"/>
</svg>
