<svg width="40" height="40" viewBox="0 0 40 40" fill="none" xmlns="http://www.w3.org/2000/svg">
<path opacity="0.3" fill-rule="evenodd" clip-rule="evenodd" d="M19.2456 31.7549L20.3795 32.8888C20.841 33.3503 20.841 34.0985 20.3795 34.56C19.918 35.0215 19.1698 35.0215 18.7083 34.56L15.5571 31.4088C15.0956 30.9473 15.0956 30.1991 15.5571 29.7376L18.7083 26.5864C19.1698 26.1249 19.918 26.1249 20.3795 26.5864C20.841 27.0478 20.841 27.7961 20.3795 28.2575L19.2456 29.3915H27.028V31.7549H19.2456ZM31.7549 19.8422L32.8888 18.7083C33.3503 18.2468 34.0985 18.2468 34.56 18.7083C35.0215 19.1698 35.0215 19.918 34.56 20.3795L31.4088 23.5307C31.178 23.7615 30.8756 23.8768 30.5732 23.8768C30.2707 23.8768 29.9683 23.7615 29.7376 23.5307L26.5864 20.3795C26.1249 19.918 26.1249 19.1698 26.5864 18.7083C27.0478 18.2468 27.7961 18.2468 28.2575 18.7083L29.3915 19.8422V12.0598H31.7549V19.8422ZM19.8422 9.69634H12.0598V7.33293H19.8422L18.7083 6.19901C18.2468 5.73752 18.2468 4.98931 18.7083 4.52782C19.1698 4.06634 19.918 4.06634 20.3795 4.52782L23.5307 7.67904C23.9922 8.14053 23.9922 8.88874 23.5307 9.35023L20.3795 12.5014C19.918 12.9629 19.1698 12.9629 18.7083 12.5014C18.2468 12.04 18.2468 11.2917 18.7083 10.8303L19.8422 9.69634ZM7.33292 19.2456L6.199 20.3795C5.73752 20.841 4.9893 20.841 4.52782 20.3795C4.06633 19.918 4.06633 19.1698 4.52782 18.7083L7.67904 15.5571C8.14052 15.0956 8.88874 15.0956 9.35022 15.5571L12.5014 18.7083C12.9629 19.1698 12.9629 19.918 12.5014 20.3795C12.04 20.841 11.2917 20.841 10.8303 20.3795L9.69634 19.2456V27.028H7.33292V19.2456Z" fill="#1565D8"/>
<path fill-rule="evenodd" clip-rule="evenodd" d="M14.0293 11.6659V5.36341C14.0293 4.05814 12.9711 3 11.6659 3H5.36341C4.05814 3 3 4.05814 3 5.36341V11.6659C3 12.9711 4.05814 14.0293 5.36341 14.0293H11.6659C12.9711 14.0293 14.0293 12.9711 14.0293 11.6659ZM11.6659 25.0585H5.36341C4.05814 25.0585 3 26.1167 3 27.422V33.7244C3 35.0297 4.05814 36.0878 5.36341 36.0878H11.6659C12.9711 36.0878 14.0293 35.0297 14.0293 33.7244V27.422C14.0293 26.1167 12.9711 25.0585 11.6659 25.0585ZM33.7244 14.0293H27.422C26.1167 14.0293 25.0585 12.9711 25.0585 11.6659V5.36341C25.0585 4.05814 26.1167 3 27.422 3H33.7244C35.0297 3 36.0878 4.05814 36.0878 5.36341V11.6659C36.0878 12.9711 35.0297 14.0293 33.7244 14.0293ZM25.0585 27.422V33.7244C25.0585 35.0297 26.1167 36.0878 27.422 36.0878H33.7244C35.0297 36.0878 36.0878 35.0297 36.0878 33.7244V27.422C36.0878 26.1167 35.0297 25.0585 33.7244 25.0585H27.422C26.1167 25.0585 25.0585 26.1167 25.0585 27.422Z" fill="#1565D8"/>
</svg>
