<svg width="40" height="40" viewBox="0 0 40 40" fill="none" xmlns="http://www.w3.org/2000/svg">
<path fill-rule="evenodd" clip-rule="evenodd" d="M11.4926 15.7021C13.5953 12.714 14.9078 9.28517 15.4344 5.4034C15.4845 5.03362 15.7463 4.72614 16.1055 4.61495C19.7267 3.49431 21.7854 5.27509 21.7514 9.33564C21.7448 10.1238 21.7084 10.8244 21.631 11.8959C21.458 14.2893 21.4718 14.9424 21.7397 15.3819C21.9973 15.8044 22.8335 15.9486 24.8113 15.5732C25.4353 15.4547 26.0613 15.3204 26.7547 15.1591C27.0608 15.0879 29.2655 14.5499 29.8291 14.4282C30.9041 14.1961 31.6755 14.0979 32.3538 14.1395C34.1912 14.2521 35.1663 15.4352 35.3348 17.7018C35.6315 21.6936 34.7147 29.7114 33.8 32.6647C32.8654 35.6825 31.2354 36.8217 27.3227 36.8905C24.8072 36.9347 20.9381 36.9347 15.6976 36.8903C14.3598 36.8592 13.1475 36.6002 12.0691 36.1159C12.3718 35.4891 12.5413 34.787 12.5413 34.0457V18.6857C12.5413 17.5581 12.1491 16.5213 11.4926 15.7021Z" fill="#1565D8"/>
<path opacity="0.3" fill-rule="evenodd" clip-rule="evenodd" d="M5.76238 15.8057C4.15785 15.8057 2.85712 17.0951 2.85712 18.6857V34.0457C2.85712 35.6363 4.15785 36.9257 5.76238 36.9257H7.69922C9.30375 36.9257 10.6045 35.6363 10.6045 34.0457V18.6857C10.6045 17.0951 9.30375 15.8057 7.69922 15.8057H5.76238Z" fill="#1565D8"/>
</svg>
